<svg width="24" xmlns="http://www.w3.org/2000/svg" height="24" id="screenshot-f9e69b4c-73b1-808b-8006-167981b885f5" viewBox="0 0 24 24" xmlns:xlink="http://www.w3.org/1999/xlink" fill="none" version="1.1"><g id="shape-f9e69b4c-73b1-808b-8006-167981b885f5" width="48" height="48" rx="0" ry="0" style="fill: rgb(0, 0, 0);"><g id="shape-f9e69b4c-73b1-808b-8006-167981b88603" style="display: none;"><g class="fills" id="fills-f9e69b4c-73b1-808b-8006-167981b88603"><rect width="16" height="19" x="4" transform="matrix(1.000000, 0.000000, 0.000000, 1.000000, 0.000000, 0.000000)" style="fill: none;" ry="0" fill="none" rx="0" y="2"/></g></g><g id="shape-f9e69b4c-73b1-808b-8006-167981b88604" rx="0" ry="0" style="fill: rgb(0, 0, 0);"><g id="shape-f9e69b4c-73b1-808b-8006-167981b88605"><g class="fills" id="fills-f9e69b4c-73b1-808b-8006-167981b88605"><path d="M0.000,0.000L24.000,0.000L24.000,24.000L0.000,24.000ZZ" fill-rule="evenodd" fill="none" style="fill: none;"/></g></g><g id="shape-f9e69b4c-73b1-808b-8006-167981b88606"><g class="fills" id="fills-f9e69b4c-73b1-808b-8006-167981b88606"><path d="M12.000,2.000C8.000,2.000,4.000,2.500,4.000,6.000L4.000,15.500C4.000,17.430,5.570,19.000,7.500,19.000L6.350,20.150C6.040,20.460,6.260,21.000,6.710,21.000L7.800,21.000C7.930,21.000,8.060,20.950,8.150,20.850L10.000,19.000L14.000,19.000L15.850,20.850C15.940,20.940,16.070,21.000,16.200,21.000L17.290,21.000C17.740,21.000,17.960,20.460,17.640,20.150L16.500,19.000C18.430,19.000,20.000,17.430,20.000,15.500L20.000,6.000C20.000,2.500,16.000,2.000,12.000,2.000ZZM7.500,17.000C6.670,17.000,6.000,16.330,6.000,15.500C6.000,14.670,6.670,14.000,7.500,14.000C8.330,14.000,9.000,14.670,9.000,15.500C9.000,16.330,8.330,17.000,7.500,17.000ZZM11.000,10.000L6.000,10.000L6.000,6.000L11.000,6.000L11.000,10.000ZZM16.500,17.000C15.670,17.000,15.000,16.330,15.000,15.500C15.000,14.670,15.670,14.000,16.500,14.000C17.330,14.000,18.000,14.670,18.000,15.500C18.000,16.330,17.330,17.000,16.500,17.000ZZM18.000,10.000L13.000,10.000L13.000,6.000L18.000,6.000L18.000,10.000ZZ" fill-rule="evenodd" style="fill: rgb(0, 0, 0);"/></g></g></g></g></svg>